<svg xmlns="http://www.w3.org/2000/svg" viewBox="0 0 32 32">
  <rect width="32" height="32" rx="9" fill="#151515"/>
  <path fill-rule="evenodd" clip-rule="evenodd" d="M16 13.564C14.742 11.808 12.647 10.7 10.25 10.7C7.074 10.7 4.5 13.274 4.5 16.45C4.5 19.626 7.074 22.2 10.25 22.2C12.647 22.2 14.742 21.092 16 19.336C17.258 21.092 19.353 22.2 21.75 22.2C24.926 22.2 27.5 19.626 27.5 16.45C27.5 13.274 24.926 10.7 21.75 10.7C19.353 10.7 17.258 11.808 16 13.564ZM10.25 19.2C8.731 19.2 7.5 17.969 7.5 16.45C7.5 14.931 8.731 13.7 10.25 13.7C11.769 13.7 13 14.931 13 16.45C13 17.969 11.769 19.2 10.25 19.2ZM21.75 19.2C20.231 19.2 19 17.969 19 16.45C19 14.931 20.231 13.7 21.75 13.7C23.269 13.7 24.5 14.931 24.5 16.45C24.5 17.969 23.269 19.2 21.75 19.2Z" fill="#dfff58"/>
</svg>
